<svg viewBox="3 74 54 35">
	<path fill="none" stroke="#cfcfcf" stroke-width="4" stroke-linecap="square" stroke-miterlimit="10" d="M5,76v28.602c0,1.1,0.755,2.398,1.854,2.398h46.157c1.1,0,1.988-1.299,1.988-2.398V76"/>
	<path fill="none" stroke="#cfcfcf" stroke-width="2" stroke-linecap="square" stroke-miterlimit="10" d="M48.223,79.919l-1.796,1.797c-0.778,0.777-2.051,0.777-2.828,0l-2.321-2.32c-0.777-0.777-2.051-0.777-2.828,0l-2.318,2.32c-0.777,0.777-2.051,0.777-2.828,0l-2.321-2.32c-0.777-0.777-2.051-0.777-2.828,0l-2.319,2.32c-0.777,0.777-2.051,0.777-2.828,0l-2.32-2.32c-0.777-0.777-2.051-0.777-2.828,0l-2.32,2.32c-0.777,0.777-2.051,0.777-2.828,0l-2.108-2.109"/>
	<path fill="none" stroke="#cfcfcf" stroke-width="2" stroke-linecap="square" stroke-miterlimit="10" d="M27.244,96.176c2.743,0,5.201-1.196,6.901-3.089c-1.7-1.893-4.158-3.09-6.901-3.09c-2.744,0-5.201,1.197-6.902,3.09C22.043,94.979,24.5,96.176,27.244,96.176z"/>
	<polygon fill="none" stroke="#cfcfcf" stroke-width="2" stroke-linecap="square" stroke-miterlimit="10" points="38,97.065 34.039,93.103 38,89.143"/>
</svg>
