<svg viewBox="72 55 69 53">
	<line fill="none" stroke="#cfcfcf" stroke-width="2" stroke-linecap="square" stroke-miterlimit="10" x1="113" y1="69" x2="113" y2="103"/>
	<line fill="none" stroke="#cfcfcf" stroke-width="2" stroke-linecap="square" stroke-miterlimit="10" x1="76" y1="69" x2="139" y2="69"/>
	<line fill="none" stroke="#cfcfcf" stroke-width="2" stroke-linecap="square" stroke-miterlimit="10" x1="92" y1="56" x2="80" y2="56"/>
	<line fill="none" stroke="#cfcfcf" stroke-width="2" stroke-linecap="square" stroke-miterlimit="10" x1="113" y1="56" x2="101" y2="56"/>
	<line fill="none" stroke="#cfcfcf" stroke-width="2" stroke-linecap="square" stroke-miterlimit="10" x1="134" y1="56" x2="122" y2="56"/>
	<line fill="none" stroke="#cfcfcf" stroke-width="3" stroke-linecap="square" stroke-miterlimit="10" x1="84" y1="106.5" x2="78" y2="106.5"/>
	<line fill="none" stroke="#cfcfcf" stroke-width="3" stroke-linecap="square" stroke-miterlimit="10" x1="137" y1="106.5" x2="131" y2="106.5"/>
	<path fill="none" stroke="#cfcfcf" stroke-width="4" stroke-linecap="square" stroke-miterlimit="10" d="M139,102c0,1.104-0.896,2-2,2h-61c-1.105,0-2-0.896-2-2v-41c0-1.104,0.895-2,2-2h61c1.104,0,2,0.896,2,2V102z"/>
	<path fill="none" stroke="#cfcfcf" stroke-width="2" stroke-linecap="square" stroke-miterlimit="10" d="M106,91c0,1.104-0.896,2-2,2h-19c-1.105,0-2-0.896-2-2v-12c0-1.104,0.895-2,2-2h19c1.104,0,2,0.896,2,2V91z"/>
	<line fill="none" stroke="#cfcfcf" stroke-width="2" stroke-linecap="square" stroke-miterlimit="10" x1="96.987" y1="81.82" x2="89.425" y2="89.383"/>
	<line fill="none" stroke="#cfcfcf" stroke-width="2" stroke-linecap="square" stroke-miterlimit="10" x1="102.425" y1="81.82" x2="94.862" y2="89.383"/>
	<circle fill="#cfcfcf" cx="86.847" cy="64.184" r="1.556"/>
	<circle fill="#cfcfcf" cx="96.847" cy="64.184" r="1.556"/>
	<circle fill="#cfcfcf" cx="106.847" cy="64.184" r="1.556"/>
	<circle fill="#cfcfcf" cx="116.847" cy="64.184" r="1.556"/>
	<circle fill="#cfcfcf" cx="126.847" cy="64.184" r="1.556"/>
</svg>